<svg width="26" height="27" viewBox="0 0 26 27" fill="none" xmlns="http://www.w3.org/2000/svg">
<path d="M21.6667 7.00004H4.33333V4.83337H21.6667V7.00004ZM15.4917 13.5C14.625 14.54 14.0833 15.8617 14.0833 17.2917C14.0833 18.5267 14.5492 19.8484 15.1667 21.0834V22.1667H4.33333V15.6667H3.25V13.5L4.33333 8.08337H21.6667L22.425 11.875C21.71 11.5284 20.93 11.3334 20.1067 11.3334L19.89 10.25H6.11L5.46 13.5H15.4917ZM13 15.6667H6.5V20H13V15.6667ZM23.8333 17.2917C23.8333 20.1084 20.0417 24.3334 20.0417 24.3334C20.0417 24.3334 16.25 20.1084 16.25 17.2917C16.25 15.2334 17.9833 13.5 20.0417 13.5C22.1 13.5 23.8333 15.2334 23.8333 17.2917ZM21.3417 17.4C21.3417 16.75 20.6917 16.1 20.0417 16.1C19.3917 16.1 18.7417 16.6417 18.7417 17.4C18.7417 18.05 19.2833 18.7 20.0417 18.7C20.8 18.7 21.45 18.05 21.3417 17.4Z" fill="#FF7A2E"/>
</svg>
