<svg width="24" height="24" viewBox="0 0 24 24" fill="none" xmlns="http://www.w3.org/2000/svg">
<path d="M17.2902 9.29C17.1977 9.1973 17.0878 9.12375 16.9668 9.07357C16.8459 9.02339 16.7162 8.99756 16.5852 8.99756C16.4543 8.99756 16.3246 9.02339 16.2036 9.07357C16.0826 9.12375 15.9727 9.1973 15.8802 9.29L12.0002 13.17L8.12022 9.29C8.02764 9.19742 7.91773 9.12398 7.79677 9.07388C7.6758 9.02377 7.54615 8.99798 7.41522 8.99798C7.28429 8.99798 7.15464 9.02377 7.03368 9.07388C6.91271 9.12398 6.8028 9.19742 6.71022 9.29C6.61764 9.38258 6.5442 9.49249 6.4941 9.61346C6.44399 9.73442 6.4182 9.86407 6.4182 9.995C6.4182 10.1259 6.44399 10.2556 6.4941 10.3765C6.5442 10.4975 6.61764 10.6074 6.71022 10.7L11.3002 15.29C11.3927 15.3827 11.5026 15.4563 11.6236 15.5064C11.7446 15.5566 11.8743 15.5824 12.0052 15.5824C12.1362 15.5824 12.2659 15.5566 12.3868 15.5064C12.5078 15.4563 12.6177 15.3827 12.7102 15.29L17.3002 10.7C17.6802 10.32 17.6802 9.68 17.2902 9.29Z" fill="#FF7A2E"/>
</svg>
