<svg width="26" height="27" viewBox="0 0 26 27" fill="none" xmlns="http://www.w3.org/2000/svg">
<path d="M4.33366 23.25C3.73783 23.25 3.22794 23.038 2.80399 22.614C2.37933 22.1894 2.16699 21.6791 2.16699 21.0833V9.16663C2.16699 8.57079 2.37933 8.0609 2.80399 7.63696C3.22794 7.21229 3.73783 6.99996 4.33366 6.99996H8.66699V4.83329C8.66699 4.23746 8.87933 3.72721 9.30399 3.30254C9.72794 2.8786 10.2378 2.66663 10.8337 2.66663H15.167C15.7628 2.66663 16.2731 2.8786 16.6977 3.30254C17.1217 3.72721 17.3337 4.23746 17.3337 4.83329V6.99996H21.667C22.2628 6.99996 22.7731 7.21229 23.1977 7.63696C23.6217 8.0609 23.8337 8.57079 23.8337 9.16663V21.0833C23.8337 21.6791 23.6217 22.1894 23.1977 22.614C22.7731 23.038 22.2628 23.25 21.667 23.25H4.33366ZM4.33366 21.0833H21.667V9.16663H4.33366V21.0833ZM10.8337 6.99996H15.167V4.83329H10.8337V6.99996ZM4.33366 21.0833V9.16663V21.0833Z" fill="#FF7A2E"/>
</svg>
