<svg width="16" height="17" viewBox="0 0 16 17" fill="none" xmlns="http://www.w3.org/2000/svg">
<path d="M14.3384 8.7983C14.3384 8.6567 14.2688 8.53222 14.1629 8.45414L14.1651 8.4503L12.6733 7.58902L13.532 6.10166L13.5291 6.0999C13.5562 6.0386 13.5685 5.97177 13.565 5.90483C13.5615 5.83789 13.5422 5.77272 13.5088 5.71462C13.4751 5.65656 13.4282 5.60727 13.3719 5.57074C13.3157 5.53421 13.2515 5.51147 13.1848 5.50438V5.50022H11.4619V3.7823H11.4584C11.4512 3.71565 11.4285 3.65163 11.3919 3.59542C11.3554 3.53921 11.3062 3.4924 11.2482 3.45878C11.19 3.42525 11.1247 3.40597 11.0576 3.40249C10.9905 3.39901 10.9236 3.41145 10.8622 3.43878L10.8602 3.4351L9.3432 4.31094L8.5032 2.8559L8.50016 2.85766C8.46061 2.80353 8.40888 2.75948 8.34914 2.72907C8.28941 2.69866 8.22335 2.68275 8.15632 2.68262C8.01472 2.68262 7.89008 2.75222 7.81216 2.85814L7.80832 2.8559L6.9544 4.33494L5.484 3.48598L5.48224 3.48902C5.42094 3.46189 5.35411 3.4496 5.28717 3.45313C5.22023 3.45666 5.15507 3.47592 5.09696 3.50934C5.03887 3.54298 4.98954 3.58985 4.95298 3.64615C4.91642 3.70245 4.89366 3.76659 4.88656 3.83334H4.88224V5.54118H3.18432V5.54454C3.11767 5.55171 3.05365 5.57448 2.99744 5.611C2.94123 5.64753 2.89442 5.69679 2.8608 5.75478C2.82736 5.81294 2.80811 5.87817 2.80461 5.94517C2.80111 6.01216 2.81345 6.07904 2.84064 6.14038L2.83696 6.14262L3.67632 7.59654L2.17328 8.46438L2.17504 8.46742C2.12092 8.50696 2.07687 8.5587 2.04646 8.61843C2.01605 8.67817 2.00013 8.74423 2 8.81126C2 8.95286 2.0696 9.0775 2.17552 9.15542L2.17328 9.15926L3.66512 10.0205L2.8064 11.5079L2.80928 11.5095C2.78216 11.5708 2.76986 11.6376 2.77339 11.7046C2.77692 11.7715 2.79618 11.8367 2.8296 11.8948C2.86327 11.9528 2.91016 12.0021 2.96645 12.0387C3.02275 12.0752 3.08687 12.0979 3.1536 12.105V12.1093H4.87632V13.8271H4.87984C4.89456 13.9577 4.96768 14.0799 5.09008 14.1506C5.14829 14.1841 5.21358 14.2034 5.28064 14.2068C5.34771 14.2103 5.41464 14.1979 5.476 14.1706L5.47808 14.1743L6.99504 13.2985L7.83504 14.7535L7.83808 14.7517C7.87762 14.8059 7.92936 14.8499 7.9891 14.8803C8.04883 14.9107 8.11489 14.9266 8.18192 14.9268C8.32352 14.9268 8.44816 14.8572 8.52608 14.7514L8.52976 14.7535L9.38368 13.2745L10.8542 14.1234L10.856 14.1204C10.9173 14.1475 10.9841 14.1598 11.0511 14.1563C11.118 14.1527 11.1832 14.1335 11.2413 14.1001C11.2994 14.0664 11.3487 14.0195 11.3853 13.9632C11.4218 13.9069 11.4446 13.8428 11.4517 13.7761H11.456V12.0684H13.1541V12.065C13.2207 12.0578 13.2848 12.0351 13.341 11.9986C13.3972 11.962 13.444 11.9128 13.4776 11.8548C13.511 11.7966 13.5303 11.7313 13.5338 11.6643C13.5373 11.5973 13.5249 11.5304 13.4978 11.469L13.5014 11.4669L12.6621 10.013L14.1651 9.14518L14.1634 9.14214C14.2175 9.10261 14.2616 9.05088 14.292 8.99114C14.3224 8.9314 14.3383 8.86533 14.3384 8.7983ZM7.16352 10.6215L5.58816 9.9255L6.28336 11.1295L5.8904 11.3564L4.82448 9.51046L5.22848 9.27702L6.75328 9.94294L6.08368 8.78326L6.4768 8.55638L7.5424 10.4023L7.16352 10.6215ZM7.90784 10.1917L6.84208 8.34566L8.14848 7.59158L8.34816 7.9375L7.43472 8.4647L7.6584 8.85222L8.55232 8.33622L8.752 8.68182L7.85808 9.19814L8.10096 9.61878L9.0144 9.09158L9.21408 9.4375L7.90784 10.1917ZM10.9328 8.44534L9.87712 7.3647L10.2878 8.8175L9.87008 9.05878L8.27568 7.51814L8.71568 7.26406L9.80976 8.41094L9.39104 6.87414L9.69824 6.69686L10.8171 7.8295L10.3707 6.30854L10.8107 6.05446L11.3507 8.20422L10.9328 8.44534Z" fill="black"/>
</svg>
