<svg width="16" height="17" viewBox="0 0 16 17" fill="none" xmlns="http://www.w3.org/2000/svg">
<g clip-path="url(#clip0_1_381)">
<path d="M2.86465 15.0338C2.78665 15.4778 3.22465 15.8248 3.61065 15.6268L8.00065 13.3708L12.3897 15.6268C12.7757 15.8248 13.2137 15.4778 13.1357 15.0348L12.3057 10.3048L15.8277 6.94876C16.1577 6.63476 15.9877 6.06076 15.5457 5.99876L10.6477 5.30276L8.46365 0.975761C8.42205 0.88805 8.35641 0.813944 8.27436 0.762053C8.19232 0.710163 8.09723 0.682617 8.00015 0.682617C7.90308 0.682617 7.80799 0.710163 7.72594 0.762053C7.6439 0.813944 7.57826 0.88805 7.53665 0.975761L5.35265 5.30376L0.454653 5.99976C0.0136534 6.06176 -0.157347 6.63576 0.171653 6.94976L3.69465 10.3058L2.86465 15.0358V15.0338ZM7.76965 12.2668L4.08365 14.1608L4.77765 10.2038C4.79391 10.1127 4.78755 10.019 4.75913 9.93093C4.73071 9.84288 4.6811 9.76315 4.61465 9.69876L1.70865 6.92876L5.76065 6.35276C5.84456 6.34009 5.92414 6.30727 5.99259 6.25711C6.06103 6.20695 6.1163 6.14095 6.15365 6.06476L7.99865 2.40676L9.84565 6.06476C9.88301 6.14095 9.93828 6.20695 10.0067 6.25711C10.0752 6.30727 10.1547 6.34009 10.2387 6.35276L14.2907 6.92776L11.3847 9.69776C11.3181 9.76226 11.2684 9.84215 11.2399 9.93039C11.2115 10.0186 11.2052 10.1125 11.2217 10.2038L11.9157 14.1608L8.22965 12.2668C8.15838 12.23 8.07935 12.2108 7.99915 12.2108C7.91896 12.2108 7.83993 12.23 7.76865 12.2668H7.76965Z" fill="black"/>
</g>
<defs>
<clipPath id="clip0_1_381">
<rect width="16" height="16" fill="white" transform="translate(0 0.5)"/>
</clipPath>
</defs>
</svg>
