<svg width="16" height="17" viewBox="0 0 16 17" fill="none" xmlns="http://www.w3.org/2000/svg">
<path fill-rule="evenodd" clip-rule="evenodd" d="M2.5 2.68259C2.36739 2.68259 2.24021 2.73527 2.14645 2.82903C2.05268 2.9228 2 3.04998 2 3.18259V4.18259C2 4.31519 2.05268 4.44237 2.14645 4.53614C2.24021 4.62991 2.36739 4.68259 2.5 4.68259H3.5C3.63261 4.68259 3.75979 4.62991 3.85355 4.53614C3.94732 4.44237 4 4.31519 4 4.18259V3.18259C4 3.04998 3.94732 2.9228 3.85355 2.82903C3.75979 2.73527 3.63261 2.68259 3.5 2.68259H2.5ZM3.5 3.18259H2.5V4.18259H3.5V3.18259Z" fill="black"/>
<path d="M6 4.18259C6 4.04998 6.05268 3.9228 6.14645 3.82903C6.24021 3.73527 6.36739 3.68259 6.5 3.68259H15.5C15.6326 3.68259 15.7598 3.73527 15.8536 3.82903C15.9473 3.9228 16 4.04998 16 4.18259C16 4.31519 15.9473 4.44237 15.8536 4.53614C15.7598 4.62991 15.6326 4.68259 15.5 4.68259H6.5C6.36739 4.68259 6.24021 4.62991 6.14645 4.53614C6.05268 4.44237 6 4.31519 6 4.18259ZM6.5 7.68259C6.36739 7.68259 6.24021 7.73527 6.14645 7.82903C6.05268 7.9228 6 8.04998 6 8.18259C6 8.3152 6.05268 8.44237 6.14645 8.53614C6.24021 8.62991 6.36739 8.68259 6.5 8.68259H15.5C15.6326 8.68259 15.7598 8.62991 15.8536 8.53614C15.9473 8.44237 16 8.3152 16 8.18259C16 8.04998 15.9473 7.9228 15.8536 7.82903C15.7598 7.73527 15.6326 7.68259 15.5 7.68259H6.5ZM6.5 11.6826C6.36739 11.6826 6.24021 11.7353 6.14645 11.829C6.05268 11.9228 6 12.05 6 12.1826C6 12.3152 6.05268 12.4424 6.14645 12.5361C6.24021 12.6299 6.36739 12.6826 6.5 12.6826H15.5C15.6326 12.6826 15.7598 12.6299 15.8536 12.5361C15.9473 12.4424 16 12.3152 16 12.1826C16 12.05 15.9473 11.9228 15.8536 11.829C15.7598 11.7353 15.6326 11.6826 15.5 11.6826H6.5Z" fill="black"/>
<path fill-rule="evenodd" clip-rule="evenodd" d="M2 7.18259C2 7.04998 2.05268 6.9228 2.14645 6.82903C2.24021 6.73527 2.36739 6.68259 2.5 6.68259H3.5C3.63261 6.68259 3.75979 6.73527 3.85355 6.82903C3.94732 6.9228 4 7.04998 4 7.18259V8.18259C4 8.31519 3.94732 8.44237 3.85355 8.53614C3.75979 8.62991 3.63261 8.68259 3.5 8.68259H2.5C2.36739 8.68259 2.24021 8.62991 2.14645 8.53614C2.05268 8.44237 2 8.31519 2 8.18259V7.18259ZM2.5 7.18259H3.5V8.18259H2.5V7.18259ZM2.5 10.6826C2.36739 10.6826 2.24021 10.7353 2.14645 10.829C2.05268 10.9228 2 11.05 2 11.1826V12.1826C2 12.3152 2.05268 12.4424 2.14645 12.5361C2.24021 12.6299 2.36739 12.6826 2.5 12.6826H3.5C3.63261 12.6826 3.75979 12.6299 3.85355 12.5361C3.94732 12.4424 4 12.3152 4 12.1826V11.1826C4 11.05 3.94732 10.9228 3.85355 10.829C3.75979 10.7353 3.63261 10.6826 3.5 10.6826H2.5ZM3.5 11.1826H2.5V12.1826H3.5V11.1826Z" fill="black"/>
</svg>
