<svg width="16" height="17" viewBox="0 0 16 17" fill="none" xmlns="http://www.w3.org/2000/svg">
<path d="M14.4625 14.2842L10.4047 10.2263C11.0344 9.41227 11.375 8.41696 11.375 7.37009C11.375 6.11696 10.8859 4.94196 10.0016 4.05602C9.11719 3.17009 7.93906 2.68259 6.6875 2.68259C5.43594 2.68259 4.25781 3.17165 3.37344 4.05602C2.4875 4.9404 2 6.11696 2 7.37009C2 8.62165 2.48906 9.79977 3.37344 10.6841C4.25781 11.5701 5.43438 12.0576 6.6875 12.0576C7.73438 12.0576 8.72813 11.717 9.54219 11.0888L13.6 15.1451C13.6119 15.157 13.626 15.1664 13.6416 15.1729C13.6571 15.1793 13.6738 15.1826 13.6906 15.1826C13.7075 15.1826 13.7241 15.1793 13.7397 15.1729C13.7552 15.1664 13.7694 15.157 13.7813 15.1451L14.4625 14.4654C14.4744 14.4535 14.4839 14.4394 14.4903 14.4238C14.4967 14.4083 14.5001 14.3916 14.5001 14.3748C14.5001 14.3579 14.4967 14.3413 14.4903 14.3257C14.4839 14.3102 14.4744 14.296 14.4625 14.2842ZM9.1625 9.84509C8.5 10.506 7.62188 10.8701 6.6875 10.8701C5.75313 10.8701 4.875 10.506 4.2125 9.84509C3.55156 9.18259 3.1875 8.30446 3.1875 7.37009C3.1875 6.43571 3.55156 5.55602 4.2125 4.89509C4.875 4.23415 5.75313 3.87009 6.6875 3.87009C7.62188 3.87009 8.50156 4.23259 9.1625 4.89509C9.82344 5.55759 10.1875 6.43571 10.1875 7.37009C10.1875 8.30446 9.82344 9.18415 9.1625 9.84509Z" fill="black"/>
</svg>
