<svg width="16" height="17" viewBox="0 0 16 17" fill="none" xmlns="http://www.w3.org/2000/svg">
<path d="M11.3333 10.5C10.8666 10.5 10.4721 10.3389 10.1499 10.0167C9.8277 9.69446 9.66658 9.30002 9.66658 8.83335C9.66658 8.36669 9.8277 7.97224 10.1499 7.65002C10.4721 7.3278 10.8666 7.16669 11.3333 7.16669C11.7999 7.16669 12.1944 7.3278 12.5166 7.65002C12.8388 7.97224 12.9999 8.36669 12.9999 8.83335C12.9999 9.30002 12.8388 9.69446 12.5166 10.0167C12.1944 10.3389 11.7999 10.5 11.3333 10.5ZM7.99992 13.8334V12.9C7.99992 12.6334 8.06925 12.3862 8.20792 12.1587C8.34703 11.9307 8.54436 11.7667 8.79992 11.6667C9.19992 11.5 9.61392 11.3751 10.0419 11.292C10.4695 11.2085 10.8999 11.1667 11.3333 11.1667C11.7666 11.1667 12.1973 11.2085 12.6253 11.292C13.0528 11.3751 13.4666 11.5 13.8666 11.6667C14.1221 11.7667 14.3195 11.9307 14.4586 12.1587C14.5973 12.3862 14.6666 12.6334 14.6666 12.9V13.8334H7.99992ZM6.66658 8.50002C5.93325 8.50002 5.30547 8.23891 4.78325 7.71669C4.26103 7.19446 3.99992 6.56669 3.99992 5.83335C3.99992 5.10002 4.26103 4.47224 4.78325 3.95002C5.30547 3.4278 5.93325 3.16669 6.66658 3.16669C7.39992 3.16669 8.0277 3.4278 8.54992 3.95002C9.07214 4.47224 9.33325 5.10002 9.33325 5.83335C9.33325 6.56669 9.07214 7.19446 8.54992 7.71669C8.0277 8.23891 7.39992 8.50002 6.66658 8.50002ZM1.33325 13.8334V11.9667C1.33325 11.5889 1.4277 11.2416 1.61659 10.9247C1.80547 10.6082 2.06659 10.3667 2.39992 10.2C3.06659 9.86669 3.75836 9.61113 4.47525 9.43335C5.1917 9.25558 5.92214 9.16669 6.66658 9.16669C7.05547 9.16669 7.44436 9.20002 7.83325 9.26669C8.22214 9.33335 8.61103 9.41113 8.99992 9.50002L8.43325 10.0667L7.86659 10.6334C7.66658 10.5778 7.46658 10.5416 7.26658 10.5247C7.06658 10.5082 6.86658 10.5 6.66658 10.5C6.02214 10.5 5.3917 10.5778 4.77525 10.7334C4.15836 10.8889 3.56659 11.1111 2.99992 11.4C2.88881 11.4556 2.80547 11.5334 2.74992 11.6334C2.69436 11.7334 2.66659 11.8445 2.66659 11.9667V12.5H6.66658V13.8334H1.33325ZM6.66658 7.16669C7.03325 7.16669 7.34725 7.03602 7.60858 6.77469C7.86947 6.5138 7.99992 6.20002 7.99992 5.83335C7.99992 5.46669 7.86947 5.15291 7.60858 4.89202C7.34725 4.63069 7.03325 4.50002 6.66658 4.50002C6.29992 4.50002 5.98614 4.63069 5.72525 4.89202C5.46392 5.15291 5.33325 5.46669 5.33325 5.83335C5.33325 6.20002 5.46392 6.5138 5.72525 6.77469C5.98614 7.03602 6.29992 7.16669 6.66658 7.16669Z" fill="black"/>
</svg>
