<svg width="149" height="72" viewBox="0 0 149 72" fill="none" xmlns="http://www.w3.org/2000/svg">
<path d="M20.6542 44.8429V60.8387C20.6542 67.3018 17.1505 71.1955 10.326 71.1955C3.5015 71.1955 0 67.2974 0 60.8387V59.684H5.85052V60.9114C5.85052 63.8356 7.11317 65.9642 10.326 65.9642C13.5036 65.9642 14.8037 63.8356 14.8037 60.9114V44.8429H20.6542Z" fill="black"/>
<path d="M44.2305 70.7307H38.8493V68.2406C37.406 70.0454 35.4205 71.2001 33.0363 71.2001C28.4506 71.2001 26.1412 68.7453 26.1412 63.1856V51.6675H31.5202V61.8855C31.5202 64.5562 32.8556 66.1825 34.9864 66.1825C37.19 66.1825 38.8493 64.4857 38.8493 60.2328V51.6675H44.2305V70.7307Z" fill="black"/>
<path d="M65.7461 57.8065H60.4046C60.4046 55.8916 59.175 55.1336 57.3703 55.1336C55.4928 55.1336 54.6268 55.8916 54.6268 56.8678C54.6268 58.4566 57.119 59.1772 59.6091 59.684C63.148 60.3693 66.795 61.632 66.795 65.1709C66.795 69.2145 62.0639 71.1999 57.7603 71.1999C53.4567 71.1999 48.5537 69.2167 48.5537 64.3049H53.8974C53.8974 66.3983 55.4135 67.2643 57.9057 67.2643C59.7832 67.2643 61.0458 66.579 61.0458 65.4243C61.0458 63.8708 58.6219 63.3287 55.9203 62.78C52.6039 62.1013 48.8865 60.9114 48.8865 57.1917C48.8865 53.1834 53.254 51.198 57.443 51.198C61.632 51.198 65.7461 53.1834 65.7461 57.8065Z" fill="black"/>
<path d="M78.1679 71.2C74.1243 71.2 71.1979 68.0952 71.1979 64.1243V55.819H69.142V51.6674H71.1979V47.4432H76.687V51.6674H80.7306V55.819H76.687V64.0163C76.687 65.7131 78.0951 66.8325 79.7919 66.8325C80.6835 66.84 81.5634 66.6289 82.3547 66.2177V70.55C81.7046 70.8408 80.5499 71.2 78.1679 71.2Z" fill="black"/>
<path d="M103.621 52.3527H98.1697C98.1697 50.3695 96.4729 48.8512 93.8352 48.8512C91.6317 48.8512 90.3338 49.9707 90.3338 51.5947C90.3338 53.3994 91.9953 54.629 95.2081 55.5611C98.9542 56.6806 104.342 58.8819 104.342 63.4676C104.342 68.3419 100.155 71.1934 94.8842 71.1934C89.1791 71.1934 84.7477 67.8351 84.7477 62.7096H90.2015C90.2015 65.5985 92.2575 66.7179 94.7497 66.7179C97.134 66.7179 98.7162 65.6337 98.7162 63.937C98.7162 61.8788 96.1182 60.6162 92.8326 59.6047C89.6176 58.6285 84.708 57.0045 84.708 51.8768C84.708 47.4013 88.4541 44.3669 93.7713 44.3669C99.6858 44.3846 103.621 48.1307 103.621 52.3527Z" fill="black"/>
<path d="M118.315 71.1999C112.321 71.1999 108.062 67.0484 108.062 61.2353C108.062 55.387 112.213 51.198 117.991 51.198C123.696 51.198 127.955 55.2416 127.955 61.308C127.955 61.3808 127.955 62.0308 127.92 62.3547H113.513C113.802 65.3869 115.644 67.2643 118.46 67.2643C120.734 67.2643 122.539 66.1824 122.9 64.3049H128.101C127.233 68.4939 123.297 71.1999 118.315 71.1999ZM118.026 55.1336C115.895 55.1336 114.379 56.5064 113.767 58.7078H122.25C121.673 56.5042 120.157 55.1336 118.026 55.1336Z" fill="black"/>
<path d="M132.539 70.7306V44.9156H138.028V70.7306H132.539Z" fill="black"/>
<path d="M143.407 70.7306V44.9156H148.896V70.7306H143.407Z" fill="black"/>
<path d="M82.663 35.4843V29.1314C85.6665 29.1314 87.9516 27.1481 87.9516 24.083C87.9516 21.5158 86.2593 20.0019 83.8023 20.0019C81.0742 20.0019 79.2188 21.9367 77.7997 25.6806C76.1074 30.0569 72.7755 36.3261 65.8431 36.3261C58.4743 36.3261 54.1641 31.4451 54.1641 25.3082C54.1641 18.6621 59.2323 13.4859 66.9933 13.4859V19.8389C62.6258 19.8389 60.9335 22.2386 60.9335 25.1407C60.9335 27.9172 62.5707 29.7682 65.1357 29.7682C68.2472 29.7682 70.1577 26.7405 71.687 22.9107C73.1611 19.1646 75.6181 13.4352 83.3659 13.4352C90.1354 13.4352 94.721 17.8116 94.721 23.997C94.721 30.8986 89.0512 35.4843 82.663 35.4843Z" fill="#FF7A2E"/>
<path d="M70.464 26.0177V0H78.4322V24.0477" fill="#FF7A2E"/>
</svg>
