<svg width="38" height="38" viewBox="0 0 38 38" fill="none" xmlns="http://www.w3.org/2000/svg">
<path d="M25.5963 30.735C25.8066 30.5251 25.9735 30.2758 26.0873 30.0013C26.2012 29.7268 26.2598 29.4326 26.2598 29.1355C26.2598 28.8383 26.2012 28.5441 26.0873 28.2696C25.9735 27.9951 25.8066 27.7458 25.5963 27.5359L16.7932 18.7328L25.5963 9.92976C25.8063 9.71971 25.9729 9.47034 26.0866 9.19589C26.2003 8.92144 26.2588 8.62729 26.2588 8.33023C26.2588 8.03317 26.2003 7.73902 26.0866 7.46457C25.9729 7.19012 25.8063 6.94075 25.5963 6.7307C25.3862 6.52065 25.1368 6.35402 24.8624 6.24035C24.5879 6.12667 24.2938 6.06816 23.9967 6.06816C23.6997 6.06816 23.4055 6.12667 23.1311 6.24035C22.8566 6.35403 22.6072 6.52065 22.3972 6.7307L11.9832 17.1447C11.7729 17.3546 11.606 17.6039 11.4922 17.8783C11.3783 18.1528 11.3197 18.447 11.3197 18.7442C11.3197 19.0413 11.3783 19.3356 11.4922 19.61C11.606 19.8845 11.7729 20.1338 11.9832 20.3437L22.3972 30.7577C23.2594 31.6198 24.7114 31.6198 25.5963 30.735Z" fill="#FF7A2E"/>
</svg>
