<svg width="38" height="38" viewBox="0 0 38 38" fill="none" xmlns="http://www.w3.org/2000/svg">
<path d="M12.4037 7.26501C12.1934 7.47491 12.0265 7.72423 11.9127 7.9987C11.7988 8.27316 11.7402 8.56739 11.7402 8.86454C11.7402 9.16168 11.7988 9.45591 11.9127 9.73038C12.0265 10.0049 12.1934 10.2542 12.4037 10.4641L21.2068 19.2672L12.4037 28.0702C12.1937 28.2803 12.0271 28.5297 11.9134 28.8041C11.7997 29.0786 11.7412 29.3727 11.7412 29.6698C11.7412 29.9668 11.7997 30.261 11.9134 30.5354C12.0271 30.8099 12.1937 31.0592 12.4037 31.2693C12.6138 31.4794 12.8632 31.646 13.1376 31.7597C13.4121 31.8733 13.7062 31.9318 14.0033 31.9318C14.3003 31.9318 14.5945 31.8733 14.8689 31.7597C15.1434 31.646 15.3927 31.4794 15.6028 31.2693L26.0168 20.8553C26.2271 20.6454 26.394 20.3961 26.5078 20.1217C26.6217 19.8472 26.6803 19.553 26.6803 19.2558C26.6803 18.9587 26.6217 18.6644 26.5078 18.39C26.394 18.1155 26.2271 17.8662 26.0168 17.6563L15.6028 7.24232C14.7406 6.38016 13.2886 6.38016 12.4037 7.26501Z" fill="#FF7A2E"/>
</svg>
