<svg width="50" height="50" viewBox="0 0 50 50" fill="none" xmlns="http://www.w3.org/2000/svg">
<rect width="50" height="50" transform="translate(0 50) rotate(-90)" fill="#FF7A2E"/>
<path d="M24.0625 13.3125C23.8532 13.0868 23.6904 12.822 23.5835 12.5334C23.4765 12.2448 23.4274 11.9379 23.439 11.6303C23.4506 11.3227 23.5227 11.0205 23.6511 10.7407C23.7795 10.461 23.9618 10.2093 24.1875 9.99998C24.4132 9.79068 24.678 9.6279 24.9666 9.52091C25.2552 9.41392 25.5621 9.36483 25.8697 9.37644C26.1773 9.38804 26.4796 9.46012 26.7593 9.58856C27.039 9.71699 27.2907 9.89927 27.5 10.125L40 23.4062C40.402 23.8396 40.6253 24.4089 40.6253 25C40.6253 25.5911 40.402 26.1603 40 26.5937L27.5 39.875C27.0773 40.3308 26.4909 40.6001 25.8697 40.6235C25.2485 40.647 24.6434 40.4227 24.1875 40C23.7317 39.5773 23.4624 38.9908 23.439 38.3696C23.4155 37.7484 23.6398 37.1433 24.0625 36.6875L35.0813 25L24.0625 13.3125ZM11.5625 13.3125C11.3532 13.0868 11.1904 12.822 11.0835 12.5334C10.9765 12.2448 10.9274 11.9379 10.939 11.6303C10.9506 11.3227 11.0227 11.0205 11.1511 10.7407C11.2795 10.461 11.4618 10.2093 11.6875 9.99998C11.9132 9.79068 12.178 9.6279 12.4666 9.52091C12.7552 9.41392 13.0621 9.36483 13.3697 9.37644C13.6773 9.38804 13.9796 9.46012 14.2593 9.58856C14.539 9.71699 14.7907 9.89927 15 10.125L27.5 23.4062C27.902 23.8396 28.1253 24.4089 28.1253 25C28.1253 25.5911 27.902 26.1603 27.5 26.5937L15 39.875C14.7907 40.1007 14.539 40.283 14.2593 40.4114C13.9796 40.5398 13.6773 40.6119 13.3697 40.6235C13.0621 40.6351 12.7552 40.586 12.4666 40.479C12.178 40.3721 11.9132 40.2093 11.6875 40C11.4618 39.7907 11.2795 39.539 11.1511 39.2592C11.0227 38.9795 10.9506 38.6772 10.939 38.3696C10.9274 38.062 10.9765 37.7551 11.0835 37.4665C11.1904 37.1779 11.3532 36.9132 11.5625 36.6875L22.5844 25L11.5625 13.3125Z" fill="white"/>
</svg>
