<svg width="16" height="17" viewBox="0 0 16 17" fill="none" xmlns="http://www.w3.org/2000/svg">
<path d="M7.70003 4.76001C7.56477 4.61414 7.493 4.42051 7.5005 4.22172C7.508 4.02293 7.59416 3.83527 7.74003 3.70001C7.8859 3.56475 8.07953 3.49297 8.27832 3.50047C8.4771 3.50797 8.66477 3.59414 8.80003 3.74001L12.8 7.99001C12.9287 8.12869 13.0001 8.31086 13.0001 8.50001C13.0001 8.68915 12.9287 8.87132 12.8 9.01001L8.80003 13.26C8.73306 13.3322 8.65251 13.3906 8.563 13.4317C8.47348 13.4728 8.37675 13.4958 8.27832 13.4995C8.17988 13.5033 8.08169 13.4875 7.98933 13.4533C7.89697 13.4191 7.81226 13.367 7.74003 13.3C7.6678 13.233 7.60948 13.1525 7.56838 13.063C7.52728 12.9735 7.50421 12.8767 7.5005 12.7783C7.49678 12.6799 7.51249 12.5817 7.54673 12.4893C7.58096 12.3969 7.63306 12.3122 7.70003 12.24L11.227 8.50001L7.70003 4.76001ZM3.70003 4.76001C3.63306 4.68778 3.58096 4.60307 3.54673 4.51071C3.51249 4.41835 3.49678 4.32015 3.5005 4.22172C3.50421 4.12329 3.52728 4.02656 3.56838 3.93704C3.60948 3.84752 3.6678 3.76698 3.74003 3.70001C3.81226 3.63303 3.89697 3.58094 3.98933 3.5467C4.08169 3.51247 4.17989 3.49676 4.27832 3.50047C4.37675 3.50419 4.47348 3.52725 4.563 3.56835C4.65251 3.60945 4.73306 3.66778 4.80003 3.74001L8.80003 7.99001C8.92865 8.12869 9.00012 8.31086 9.00012 8.50001C9.00012 8.68915 8.92865 8.87132 8.80003 9.01001L4.80003 13.26C4.73306 13.3322 4.65251 13.3906 4.563 13.4317C4.47348 13.4728 4.37674 13.4958 4.27832 13.4995C4.17989 13.5033 4.08169 13.4875 3.98933 13.4533C3.89697 13.4191 3.81226 13.367 3.74003 13.3C3.6678 13.233 3.60948 13.1525 3.56838 13.063C3.52728 12.9735 3.50421 12.8767 3.5005 12.7783C3.49678 12.6799 3.51249 12.5817 3.54673 12.4893C3.58096 12.3969 3.63306 12.3122 3.70003 12.24L7.22703 8.50001L3.70003 4.76001Z" fill="#FF7A2E"/>
</svg>
