<svg width="27" height="27" viewBox="0 0 27 27" fill="none" xmlns="http://www.w3.org/2000/svg">
<path d="M5.625 21.375H7.2L16.9031 11.6719L15.3281 10.0969L5.625 19.8V21.375ZM21.7125 10.0406L16.9313 5.31562L18.5063 3.74063C18.9375 3.30938 19.4674 3.09375 20.0959 3.09375C20.7236 3.09375 21.2531 3.30938 21.6844 3.74063L23.2594 5.31562C23.6906 5.74687 23.9156 6.26737 23.9344 6.87712C23.9531 7.48612 23.7469 8.00625 23.3156 8.4375L21.7125 10.0406ZM4.5 23.625C4.18125 23.625 3.91425 23.517 3.699 23.301C3.483 23.0858 3.375 22.8188 3.375 22.5V19.3219C3.375 19.1719 3.40313 19.0268 3.45938 18.8865C3.51563 18.7455 3.6 18.6188 3.7125 18.5063L15.3 6.91875L20.0813 11.7L8.49375 23.2875C8.38125 23.4 8.25487 23.4844 8.11462 23.5406C7.97362 23.5969 7.82812 23.625 7.67812 23.625H4.5ZM16.1156 10.8844L15.3281 10.0969L16.9031 11.6719L16.1156 10.8844Z" fill="#FF7A2E"/>
</svg>
