<svg width="24" height="13" viewBox="0 0 24 13" fill="none" xmlns="http://www.w3.org/2000/svg">
<path d="M0 0.5H23.9874V12.4986H0V0.5Z" fill="white"/>
<path d="M10.7942 7.69552V12.4986H13.1933V7.69552H23.9875V5.2968H13.1933V0.5H10.7942V5.2968H0V7.69552H10.7942Z" fill="#CF142B"/>
<path d="M13.9931 4.38392V0.5H21.7595L13.9931 4.38392ZM13.9931 8.61464V12.4986H21.7595L13.9931 8.61464ZM9.99416 8.61464V12.4986H2.22784L9.99416 8.61464ZM9.99416 4.38392V0.5H2.22784L9.99416 4.38392ZM0 1.61536V4.49944H5.76696L0 1.61536ZM23.9874 1.61536V4.49944H18.2204L23.9874 1.61536ZM23.9874 11.3833V8.4992H18.2204L23.9874 11.3833ZM0 11.3833V8.4992H5.76696L0 11.3833Z" fill="#00247D"/>
<path d="M23.9874 0.5H22.6551L14.672 4.49944H16.0043L24 0.5H23.9874ZM9.31544 8.49896H7.98312L0 12.4984H1.33232L9.328 8.49896H9.31544ZM6.66144 4.50256H7.99368L0 0.5V1.1708L6.66144 4.50256ZM17.3218 8.49744H15.9895L23.9832 12.5V11.8292L17.3218 8.49744Z" fill="#CF142B"/>
</svg>
