<svg width="18" height="18" viewBox="0 0 18 18" fill="none" xmlns="http://www.w3.org/2000/svg">
<g clip-path="url(#clip0_403_2961)">
<path d="M5.62873 17.9996C4.27105 17.9988 2.95949 17.5069 1.93607 16.6147C0.912661 15.7226 0.24646 14.4904 0.0604054 13.1455C-0.12565 11.8006 0.180996 10.4338 0.92376 9.29733C1.66652 8.16083 2.79528 7.33133 4.10173 6.9619C5.05133 6.68997 6.05645 6.67754 7.01248 6.9259L12.9435 0.996398C13.2583 0.67936 13.633 0.427999 14.0458 0.256895C14.4585 0.0857913 14.9012 -0.00164856 15.348 -0.000352001V-0.000352001C16.0512 0.000243823 16.7254 0.279841 17.2226 0.777059C17.7198 1.27428 17.9994 1.94848 18 2.65165C18.0011 3.09849 17.9137 3.54113 17.7428 3.95398C17.5718 4.36683 17.3207 4.74169 17.004 5.0569L16.5 5.5609C16.218 5.84098 15.8369 5.99862 15.4395 5.99965H14.25V6.74965C14.25 7.14747 14.0919 7.529 13.8106 7.81031C13.5293 8.09161 13.1478 8.24965 12.75 8.24965H12V9.43915C12.0005 9.6362 11.9619 9.8314 11.8865 10.0134C11.8111 10.1955 11.7002 10.3607 11.5605 10.4996L11.073 10.9871C11.3227 11.9427 11.3105 12.9479 11.0377 13.8971C10.7308 14.9786 10.108 15.9439 9.24909 16.6693C8.39021 17.3947 7.33435 17.8472 6.21673 17.9689C6.02139 17.9892 5.82513 17.9995 5.62873 17.9996V17.9996ZM5.62873 8.24965C4.86085 8.2489 4.10799 8.46252 3.45492 8.86644C2.80185 9.27036 2.27449 9.84855 1.93221 10.5359C1.58993 11.2233 1.4463 11.9926 1.51751 12.7572C1.58872 13.5218 1.87194 14.2513 2.33527 14.8636C2.79861 15.476 3.42367 15.9468 4.1401 16.2232C4.85653 16.4996 5.63588 16.5705 6.39042 16.428C7.14497 16.2854 7.84475 15.9351 8.41099 15.4164C8.97723 14.8978 9.38746 14.2313 9.59548 13.4921C9.82948 12.6795 9.80325 11.8141 9.52048 11.0171C9.47434 10.8841 9.4666 10.7407 9.49817 10.6034C9.52974 10.4661 9.59933 10.3405 9.69898 10.2409L10.5 9.43915V8.24965C10.5 7.85182 10.658 7.47029 10.9393 7.18899C11.2206 6.90768 11.6022 6.74965 12 6.74965H12.75V5.99965C12.75 5.60182 12.908 5.22029 13.1893 4.93899C13.4706 4.65768 13.8522 4.49965 14.25 4.49965H15.4395L15.9435 3.99565C16.1205 3.81951 16.2608 3.61004 16.3563 3.37936C16.4518 3.14867 16.5006 2.90133 16.5 2.65165C16.4998 2.34631 16.3785 2.05352 16.1626 1.83754C15.9468 1.62157 15.6541 1.50005 15.3487 1.49965C15.0989 1.49903 14.8514 1.54797 14.6206 1.64362C14.3897 1.73927 14.1802 1.87974 14.004 2.0569L7.75573 8.3044C7.65602 8.40406 7.53023 8.4736 7.3928 8.50504C7.25537 8.53648 7.11186 8.52854 6.97873 8.48215C6.54379 8.32901 6.0861 8.2504 5.62498 8.24965H5.62873ZM3.74998 13.4996C3.74998 13.648 3.79397 13.793 3.87638 13.9163C3.95879 14.0397 4.07593 14.1358 4.21297 14.1926C4.35002 14.2493 4.50082 14.2642 4.6463 14.2352C4.79179 14.2063 4.92542 14.1349 5.03031 14.03C5.1352 13.9251 5.20663 13.7915 5.23557 13.646C5.26451 13.5005 5.24966 13.3497 5.19289 13.2126C5.13613 13.0756 5.04 12.9585 4.91666 12.876C4.79332 12.7936 4.64832 12.7496 4.49998 12.7496C4.30107 12.7496 4.11031 12.8287 3.96965 12.9693C3.829 13.11 3.74998 13.3007 3.74998 13.4996Z" fill="black" fill-opacity="0.3"/>
</g>
<defs>
<clipPath id="clip0_403_2961">
<rect width="18" height="18" fill="white"/>
</clipPath>
</defs>
</svg>
