<svg width="26" height="27" viewBox="0 0 26 27" fill="none" xmlns="http://www.w3.org/2000/svg">
<path d="M17.2545 23.5C9.39526 23.5 3 17.1047 3 9.24551C3.00039 7.83992 3.51306 6.48265 4.44203 5.42781C5.37101 4.37296 6.65259 3.69286 8.04686 3.51482C8.46109 3.46301 8.88091 3.54787 9.2425 3.75648C9.6041 3.96509 9.8877 4.28606 10.0502 4.67059L11.9861 9.17809C12.1139 9.47037 12.1668 9.78993 12.1399 10.1078C12.113 10.4257 12.0072 10.7318 11.832 10.9984L10.3488 13.2522C11.0059 14.4939 12.0232 15.5079 13.2671 16.1609L15.4919 14.6776C15.7595 14.5009 16.0669 14.3934 16.3863 14.3648C16.7057 14.3363 17.0272 14.3875 17.3219 14.5139L21.8294 16.4498C22.2139 16.6123 22.5349 16.8959 22.7435 17.2575C22.9521 17.6191 23.037 18.0389 22.9852 18.4531C22.8071 19.8474 22.127 21.129 21.0722 22.058C20.0173 22.9869 18.6601 23.4996 17.2545 23.5ZM8.04686 5.85525C7.27209 6.02258 6.57805 6.45032 6.08033 7.0672C5.58262 7.68409 5.31129 8.45288 5.31154 9.24551C5.31409 12.4122 6.57318 15.4484 8.81237 17.6876C11.0516 19.9268 14.0878 21.1859 17.2545 21.1885C18.0471 21.1887 18.8159 20.9174 19.4328 20.4197C20.0497 19.922 20.4774 19.2279 20.6447 18.4531L16.5996 16.7195L14.3651 18.2124C14.0872 18.3962 13.7665 18.5053 13.4341 18.5289C13.1017 18.5525 12.7688 18.4899 12.4677 18.3472C10.5982 17.4418 9.08584 15.9363 8.17207 14.0708C8.02512 13.7713 7.95935 13.4384 7.98132 13.1054C8.00329 12.7725 8.11224 12.4511 8.29728 12.1735L9.78051 9.90044L8.04686 5.85525Z" fill="#FF7A2E"/>
</svg>
