<svg width="24" height="24" viewBox="0 0 24 24" fill="none" xmlns="http://www.w3.org/2000/svg">
<path d="M0.046875 14.6494V19.4046C0.046875 19.7445 0.278437 20.0415 0.608484 20.1226C8.06925 21.9557 15.53 18.0817 22.9908 19.746C23.4516 19.8488 23.8884 19.4962 23.8884 19.024V14.6494C15.9412 12.3842 7.99406 16.9146 0.046875 14.6494Z" fill="#FF473E"/>
<path d="M0.046875 9.32508V14.6494C7.99406 16.9146 15.9412 12.3842 23.8884 14.6494V9.32508C15.9412 7.05989 7.99406 11.5903 0.046875 9.32508Z" fill="#0B67B2"/>
<path d="M0.046875 4.74347V9.32508C7.99406 11.5903 15.9412 7.05989 23.8884 9.32508V4.36289C23.8884 4.023 23.6568 3.72595 23.3268 3.64486C15.866 1.81176 8.40525 5.68575 0.944484 4.02145C0.483703 3.9187 0.046875 4.27134 0.046875 4.74347Z" fill="#E8E8E8"/>
</svg>
