<svg width="20" height="20" viewBox="0 0 20 20" fill="none" xmlns="http://www.w3.org/2000/svg">
<g clip-path="url(#clip0_19_965)">
<path d="M15.0257 13.8475L18.5948 17.4158L17.4157 18.595L13.8473 15.0258C12.5196 16.0902 10.8682 16.6691 9.1665 16.6667C5.0265 16.6667 1.6665 13.3067 1.6665 9.16666C1.6665 5.02666 5.0265 1.66666 9.1665 1.66666C13.3065 1.66666 16.6665 5.02666 16.6665 9.16666C16.6689 10.8683 16.09 12.5198 15.0257 13.8475ZM13.354 13.2292C14.4116 12.1416 15.0022 10.6837 14.9998 9.16666C14.9998 5.94332 12.389 3.33332 9.1665 3.33332C5.94317 3.33332 3.33317 5.94332 3.33317 9.16666C3.33317 12.3892 5.94317 15 9.1665 15C10.6835 15.0024 12.1414 14.4118 13.229 13.3542L13.354 13.2292Z" fill="#A1A4B2"/>
</g>
<defs>
<clipPath id="clip0_19_965">
<rect width="20" height="20" fill="white"/>
</clipPath>
</defs>
</svg>
