<svg width="32" height="32" viewBox="0 0 32 32" fill="none" xmlns="http://www.w3.org/2000/svg">
<path d="M7.80008 22.8C8.93341 21.9333 10.2001 21.2498 11.6001 20.7493C13.0001 20.2498 14.4667 20 16.0001 20C17.5334 20 19.0001 20.2498 20.4001 20.7493C21.8001 21.2498 23.0667 21.9333 24.2001 22.8C24.9779 21.8889 25.5836 20.8556 26.0174 19.7C26.4503 18.5444 26.6667 17.3111 26.6667 16C26.6667 13.0444 25.6281 10.5276 23.5507 8.44934C21.4725 6.372 18.9556 5.33334 16.0001 5.33334C13.0445 5.33334 10.5281 6.372 8.45075 8.44934C6.37253 10.5276 5.33341 13.0444 5.33341 16C5.33341 17.3111 5.5503 18.5444 5.98408 19.7C6.41697 20.8556 7.0223 21.8889 7.80008 22.8ZM16.0001 17.3333C14.689 17.3333 13.5832 16.8836 12.6827 15.984C11.7832 15.0836 11.3334 13.9778 11.3334 12.6667C11.3334 11.3556 11.7832 10.2498 12.6827 9.34934C13.5832 8.44978 14.689 8 16.0001 8C17.3112 8 18.417 8.44978 19.3174 9.34934C20.217 10.2498 20.6667 11.3556 20.6667 12.6667C20.6667 13.9778 20.217 15.0836 19.3174 15.984C18.417 16.8836 17.3112 17.3333 16.0001 17.3333ZM16.0001 29.3333C14.1556 29.3333 12.4223 28.9831 10.8001 28.2827C9.17786 27.5831 7.76675 26.6333 6.56675 25.4333C5.36675 24.2333 4.41697 22.8222 3.71741 21.2C3.01697 19.5778 2.66675 17.8444 2.66675 16C2.66675 14.1556 3.01697 12.4222 3.71741 10.8C4.41697 9.17778 5.36675 7.76667 6.56675 6.56667C7.76675 5.36667 9.17786 4.41645 10.8001 3.716C12.4223 3.01645 14.1556 2.66667 16.0001 2.66667C17.8445 2.66667 19.5779 3.01645 21.2001 3.716C22.8223 4.41645 24.2334 5.36667 25.4334 6.56667C26.6334 7.76667 27.5832 9.17778 28.2827 10.8C28.9832 12.4222 29.3334 14.1556 29.3334 16C29.3334 17.8444 28.9832 19.5778 28.2827 21.2C27.5832 22.8222 26.6334 24.2333 25.4334 25.4333C24.2334 26.6333 22.8223 27.5831 21.2001 28.2827C19.5779 28.9831 17.8445 29.3333 16.0001 29.3333ZM16.0001 26.6667C17.1779 26.6667 18.289 26.4947 19.3334 26.1507C20.3779 25.8058 21.3334 25.3111 22.2001 24.6667C21.3334 24.0222 20.3779 23.5276 19.3334 23.1827C18.289 22.8387 17.1779 22.6667 16.0001 22.6667C14.8223 22.6667 13.7112 22.8387 12.6667 23.1827C11.6223 23.5276 10.6667 24.0222 9.80008 24.6667C10.6667 25.3111 11.6223 25.8058 12.6667 26.1507C13.7112 26.4947 14.8223 26.6667 16.0001 26.6667ZM16.0001 14.6667C16.5779 14.6667 17.0556 14.4778 17.4334 14.1C17.8112 13.7222 18.0001 13.2444 18.0001 12.6667C18.0001 12.0889 17.8112 11.6111 17.4334 11.2333C17.0556 10.8556 16.5779 10.6667 16.0001 10.6667C15.4223 10.6667 14.9445 10.8556 14.5667 11.2333C14.189 11.6111 14.0001 12.0889 14.0001 12.6667C14.0001 13.2444 14.189 13.7222 14.5667 14.1C14.9445 14.4778 15.4223 14.6667 16.0001 14.6667Z" fill="#FF7A2E"/>
</svg>
